<?xml version="1.0" encoding="UTF-8" standalone="no"?>
<svg
   xmlns:dc="http://purl.org/dc/elements/1.1/"
   xmlns:cc="http://creativecommons.org/ns#"
   xmlns:rdf="http://www.w3.org/1999/02/22-rdf-syntax-ns#"
   xmlns:svg="http://www.w3.org/2000/svg"
   xmlns="http://www.w3.org/2000/svg"
   xmlns:sodipodi="http://sodipodi.sourceforge.net/DTD/sodipodi-0.dtd"
   xmlns:inkscape="http://www.inkscape.org/namespaces/inkscape"
   version="1.1"
   viewBox="0 0 100 100"
   id="svg34"
   sodipodi:docname="logo.svg"
   inkscape:version="1.0.2 (e86c870879, 2021-01-15, custom)">
  <metadata
     id="metadata40">
    <rdf:RDF>
      <cc:Work
         rdf:about="">
        <dc:format>image/svg+xml</dc:format>
        <dc:type
           rdf:resource="http://purl.org/dc/dcmitype/StillImage" />
      </cc:Work>
    </rdf:RDF>
  </metadata>
  <defs
     id="defs38" />
  <sodipodi:namedview
     pagecolor="#ffffff"
     bordercolor="#666666"
     borderopacity="1"
     objecttolerance="10"
     gridtolerance="10"
     guidetolerance="10"
     inkscape:pageopacity="0"
     inkscape:pageshadow="2"
     inkscape:window-width="1920"
     inkscape:window-height="1018"
     id="namedview36"
     showgrid="false"
     inkscape:zoom="0.53125"
     inkscape:cx="-989.28611"
     inkscape:cy="256.37427"
     inkscape:window-x="-6"
     inkscape:window-y="-6"
     inkscape:window-maximized="1"
     inkscape:current-layer="g145"
     inkscape:snap-page="false" />
  <rect
     x="0"
     y="0"
     width="100"
     height="25"
     style="fill:maroon"
     id="rect26" />
  <rect
     x="0"
     y="25"
     width="100"
     height="25"
     style="fill:crimson"
     id="rect28" />
  <rect
     x="0"
     y="50"
     width="100"
     height="25"
     style="fill:orangeRed"
     id="rect30" />
  <rect
     x="0"
     y="75"
     width="100"
     height="25"
     style="fill:darkOrange"
     id="rect32" />
  <g
     id="g109"
     transform="translate(6.9066338,8.382102)" />
  <g
     id="g145"
     transform="translate(-13.588171,4.0242376)">
    <path
       d="M 96.921504,5.9757624 H 30.254838 c -3.644445,0 -6.666667,3.0222222 -6.666667,6.6666666 v 66.666667 c 0,3.644444 3.022222,6.666666 6.666667,6.666666 h 66.666666 c 3.644446,0 6.666666,-3.022222 6.666666,-6.666666 V 12.642429 c 0,-3.6444444 -3.02222,-6.6666666 -6.666666,-6.6666666 z m 2.222223,73.3333336 c 0,1.244444 -0.977778,2.222222 -2.222223,2.222222 H 30.254838 c -1.244445,0 -2.222223,-0.977778 -2.222223,-2.222222 V 12.642429 c 0,-1.244445 0.977778,-2.222222 2.222223,-2.222222 h 66.666666 c 1.244445,0 2.222223,0.977777 2.222223,2.222222 z"
       id="path113"
       style="stroke-width:0.888889;fill:#ffffff;fill-opacity:1" />
    <path
       d="m 85.721505,24.109095 c -0.08889,-0.08889 -0.08889,-0.08889 -0.177778,-0.177777 -0.08889,-0.08889 -0.08889,-0.08889 -0.177778,-0.177778 -5.6,-5.511111 -13.333333,-8.888889 -21.777778,-8.888889 -8.444444,0 -16.177778,3.377778 -21.777778,8.888889 0,0 0,0 -0.08889,0.08889 -0.08889,0.08889 -0.08889,0.08889 -0.177778,0.177778 -0.08889,0.08889 -0.08889,0.08889 -0.177778,0.177777 -5.511111,5.6 -8.888889,13.333334 -8.888889,21.777778 0,8.444445 3.377778,16.177778 8.888889,21.777778 0,0 0,0 0.08889,0.08889 0.08889,0.08889 0.08889,0.08889 0.177778,0.177778 0.08889,0.08889 0.08889,0.08889 0.177777,0.177778 5.6,5.511111 13.333334,8.888888 21.777778,8.888888 8.444445,0 16.177778,-3.377777 21.777778,-8.888888 0,0 0,0 0.08889,-0.08889 0.08889,-0.08889 0.08889,-0.08889 0.177778,-0.177778 0.08889,-0.08889 0.08889,-0.08889 0.177778,-0.177778 5.511111,-5.6 8.888888,-13.333333 8.888888,-21.777778 0,-8.444444 -3.377777,-16.177778 -8.977777,-21.866667 0.08889,0.08889 0,0.08889 0,0 z M 80.477061,40.55354 c -2.044445,2.044444 -4.888889,3.2 -7.822223,3.2 h -2.755555 c -0.08889,-0.177778 -0.177778,-0.444444 -0.266667,-0.622222 l 13.6,-13.6 c 1.155556,3.822222 0.08889,8.088889 -2.755555,11.022222 z m 0.355555,-14.933333 -4.711111,4.711111 c 0,-0.08889 0,-0.08889 0,-0.177778 0,-3.377778 -1.066667,-6.488889 -2.933333,-9.155556 2.755555,1.155556 5.333333,2.666667 7.644444,4.622223 z M 65.810394,36.909096 V 20.464651 c 3.555555,1.866667 5.866666,5.6 5.866666,9.777778 0,2.933333 -1.155555,5.688889 -3.2,7.822222 l -1.955555,1.955556 C 66.343727,39.931318 66.07706,39.842429 65.899283,39.75354 V 36.909096 Z M 61.365949,19.397984 v 6.666667 c 0,0 -0.08889,-0.08889 -0.08889,-0.08889 -2.311111,-2.311111 -5.333333,-3.822222 -8.533333,-4.355555 2.666667,-1.155556 5.6,-1.955556 8.622223,-2.222222 z m -11.022222,6.488889 c 2.933333,0 5.688889,1.155556 7.822222,3.2 2.044445,2.044445 3.2,4.888889 3.2,7.822223 v 2.755555 c -0.177778,0.08889 -0.444444,0.177778 -0.622222,0.266667 l -13.6,-13.6 c 0.977778,-0.266667 2.044444,-0.444445 3.2,-0.444445 z m -7.111111,2.844445 4.711111,4.711111 c -0.08889,0 -0.08889,0 -0.177778,0 -3.377778,0 -6.488889,1.066667 -9.155556,2.933333 1.155556,-2.755555 2.666667,-5.333333 4.622223,-7.644444 z m 4.622222,9.155555 c 2.933333,0 5.688889,1.155556 7.822222,3.2 l 1.955556,1.955556 c -0.08889,0.177778 -0.177778,0.444444 -0.266667,0.622222 H 54.610394 38.07706 c 1.866667,-3.466667 5.6,-5.777778 9.777778,-5.777778 z m -8.622222,18.933334 c -1.155556,-2.666667 -1.955556,-5.6 -2.222223,-8.622223 h 6.666667 c 0,0 -0.08889,0.08889 -0.08889,0.08889 -2.4,2.4 -3.822222,5.422223 -4.355555,8.533334 z m 7.466666,-5.422223 c 2.044445,-2.044444 4.888889,-3.2 7.822223,-3.2 h 2.755555 c 0.08889,0.177778 0.177778,0.444445 0.266667,0.622223 l -13.6,13.6 c -1.155556,-3.822222 -0.08889,-8.088889 2.755555,-11.022223 z m -0.355555,14.933334 4.711111,-4.711111 c 0,0.08889 0,0.08889 0,0.177778 0,3.377777 1.066667,6.488888 2.933333,9.155555 -2.755555,-1.155555 -5.333333,-2.666667 -7.644444,-4.622222 z M 61.365949,55.042429 v 16.444444 c -3.555555,-1.866666 -5.866667,-5.6 -5.866667,-9.777777 0,-2.933334 1.155556,-5.688889 3.200001,-7.822223 l 1.955555,-1.955555 c 0.177778,0.08889 0.444445,0.177778 0.622222,0.266666 v 2.844445 z m 2.222222,-6.844445 c -1.244444,0 -2.222222,-0.977777 -2.222222,-2.222222 0,-1.244444 0.977778,-2.222222 2.222222,-2.222222 1.244445,0 2.222223,0.977778 2.222223,2.222222 0,1.244445 -0.977778,2.222222 -2.222223,2.222222 z m 2.222223,24.355556 v -6.666667 c 0,0 0.08889,0.08889 0.08889,0.08889 2.311111,2.311111 5.333333,3.822223 8.533333,4.355556 -2.666667,1.155555 -5.6,1.955555 -8.622222,2.222222 z m 11.022222,-6.488889 c -2.933333,0 -5.688889,-1.155555 -7.822222,-3.2 -2.044445,-2.044444 -3.2,-4.888889 -3.2,-7.822222 v -2.755556 c 0.177777,-0.08889 0.444444,-0.177777 0.622222,-0.266666 l 13.6,13.6 c -0.977778,0.266666 -2.044444,0.444444 -3.2,0.444444 z m 7.111111,-2.844444 -4.711111,-4.711111 c 0.08889,0 0.08889,0 0.177778,0 3.377778,0 6.488889,-1.066667 9.155555,-2.933334 -1.155555,2.755556 -2.666666,5.333334 -4.622222,7.644445 z m -4.533333,-9.155556 c -2.933334,0 -5.688889,-1.155555 -7.822222,-3.2 l -1.955556,-1.955555 c 0.08889,-0.177778 0.177778,-0.444445 0.266667,-0.622223 h 2.755555 16.444445 c -1.866667,3.466667 -5.6,5.777778 -9.688889,5.777778 z M 90.16595,43.75354 h -6.666667 c 0,0 0.08889,-0.08889 0.08889,-0.08889 2.4,-2.4 3.822222,-5.333333 4.355555,-8.533333 1.155556,2.666666 1.955556,5.6 2.222222,8.622223 z"
       id="path115"
       style="stroke-width:0.888889;fill:#ffffff;fill-opacity:1" />
    <circle
       cx="92.477066"
       cy="74.864647"
       id="circle117"
       style="stroke-width:0.888889;fill:#ffffff;fill-opacity:1"
       r="2.2222223" />
    <circle
       cx="92.477066"
       cy="17.086874"
       id="circle119"
       style="stroke-width:0.888889;fill:#ffffff;fill-opacity:1"
       r="2.2222223" />
    <circle
       cx="34.69928"
       cy="17.086874"
       id="circle121"
       style="stroke-width:0.888889;fill:#ffffff;fill-opacity:1"
       r="2.2222223" />
    <circle
       cx="34.69928"
       cy="74.864647"
       id="circle123"
       style="stroke-width:0.888889;fill:#ffffff;fill-opacity:1"
       r="2.2222223" />
  </g>
</svg>
